<?xml version="1.0" encoding="UTF-8" standalone="no"?>
<!DOCTYPE svg PUBLIC "-//W3C//DTD SVG 1.1//EN" "http://www.w3.org/Graphics/SVG/1.1/DTD/svg11.dtd">
<svg width="100%" height="100%" viewBox="0 0 32 32" version="1.1" xmlns="http://www.w3.org/2000/svg" xmlns:xlink="http://www.w3.org/1999/xlink" xml:space="preserve" xmlns:serif="http://www.serif.com/" style="fill-rule:evenodd;clip-rule:evenodd;stroke-linejoin:round;stroke-miterlimit:2;">
    <g transform="matrix(0.015316,-0.000044,0.000044,0.015316,-3.907391,-7.023959)">
        <path d="M758,2270C758,2270 754.102,2117.049 852,2048C953.344,1976.52 993.937,1920.81 1015.022,1838.554C1043.639,1726.916 820.48,1561.516 736.559,1479.922C645.299,1391.19 611.747,1270.631 623,1092C634.253,913.369 742.741,684.117 1003,606C1263.259,527.883 1581.774,602.866 1705,721C1828.226,839.134 1866.14,1013.452 1867.044,1115.028C1867.948,1216.603 1854.642,1209.117 1851.927,1237.964C1851.381,1254.403 1929.332,1459.699 1963,1504.878C1999.136,1553.369 1907.466,1544.676 1883.96,1564.971C1870.636,1576.476 1887.554,1624.17 1887.554,1624.17C1887.554,1624.17 1895.79,1633.493 1896.001,1644.012C1896.423,1665.083 1870.57,1666.036 1870.992,1683.014C1882.25,1693.779 1890.277,1695.341 1889.009,1718.038C1887.667,1742.058 1844.92,1736.737 1847,1786C1848.751,1827.473 1859.254,1821.362 1857,1853C1854.746,1884.638 1837.245,1959.814 1724,1960C1610.755,1960.186 1593.537,1957.343 1594,1957C1594.463,1956.657 1533.926,1969.23 1529.005,2050.896C1525.79,2104.26 1551.881,2177.567 1590.816,2225.471C1628.01,2271.233 1680.237,2453.712 1661.984,2439.036L758,2270Z" style="fill:rgb(153,164,88);"/>
    </g>
    <g transform="matrix(0.013442,0,0,0.013442,-1.859485,-4.990853)">
        <path d="M1142,1401C1142,1401 1105.331,1431.432 979,1433C913.672,1433.811 774.597,1390.048 706,1300C637.403,1209.952 631.905,1126.962 664,1011C696.095,895.038 798.696,716.826 928,661C1057.304,605.174 1130.036,597.589 1268,589C1405.964,580.411 1672.961,671.272 1730,751C1787.039,830.728 1861.904,953.731 1862,1036C1862.068,1093.69 1900.255,1339.006 1583.438,1376.05C1539.565,1381.18 1457.987,1369.74 1411.519,1349.212C1296.602,1333.062 1271.096,1355.594 1271.096,1355.594C1271.096,1355.594 1295.047,1412.104 1142,1401Z" style="fill:rgb(220,151,69);"/>
    </g>
</svg>
